<svg width="31" height="30" viewBox="0 0 31 30" fill="none" xmlns="http://www.w3.org/2000/svg">
<path d="M2 13C0.895431 13 1.60941e-07 13.8954 0 15C-1.60941e-07 16.1046 0.89543 17 2 17L2 13ZM30.4142 16.4142C31.1953 15.6332 31.1953 14.3668 30.4142 13.5858L17.6863 0.857867C16.9052 0.0768178 15.6389 0.0768176 14.8579 0.857866C14.0768 1.63891 14.0768 2.90524 14.8579 3.68629L26.1716 15L14.8579 26.3137C14.0768 27.0948 14.0768 28.3611 14.8579 29.1421C15.6389 29.9232 16.9052 29.9232 17.6863 29.1421L30.4142 16.4142ZM2 17L29 17L29 13L2 13L2 17Z" fill="#1E1E1E"/>
</svg>
