<svg width="58" height="58" viewBox="0 0 58 58" fill="none" xmlns="http://www.w3.org/2000/svg">
<path d="M23.2541 1.88397C24.9199 0.660043 26.933 0 29 0C31.067 0 33.0801 0.660043 34.7459 1.88397L38.11 4.34923C38.6647 4.7589 39.3063 5.02355 39.9878 5.12869L44.1133 5.76313C46.1552 6.07624 48.044 7.03258 49.5051 8.49307C50.9661 9.95357 51.9232 11.8421 52.2372 13.884L52.8716 18.0097C52.9768 18.6876 53.2414 19.3329 53.651 19.8876L56.1161 23.252C57.34 24.9179 58 26.931 58 28.9982C58 31.0654 57.34 33.0785 56.1161 34.7444L53.651 38.1088C53.2448 38.6634 52.9776 39.3074 52.8716 39.9867L52.2372 44.1124C51.9239 46.155 50.9671 48.0443 49.506 49.5055C48.0449 50.9667 46.1557 51.9236 44.1133 52.2369L39.9878 52.8713C39.3086 52.9773 38.6646 53.2445 38.11 53.6508L34.7459 56.116C33.0801 57.34 31.067 58 29 58C26.933 58 24.9199 57.34 23.2541 56.116L19.89 53.6508C19.3354 53.2445 18.6914 52.9773 18.0122 52.8713L13.8831 52.2405C11.8419 51.9267 9.95385 50.97 8.4935 49.5096C7.03316 48.0492 6.07657 46.161 5.76277 44.1196L5.12837 39.994C5.02243 39.3147 4.75516 38.6707 4.34896 38.116L1.88386 34.7517C0.660002 33.0858 0 31.0726 0 29.0054C0 26.9383 0.660002 24.9251 1.88386 23.2592L4.34896 19.8949C4.75717 19.3413 5.02465 18.6968 5.12837 18.0169L5.76277 13.884C6.07657 11.8426 7.03316 9.95447 8.4935 8.49403C9.95385 7.0336 11.8419 6.07695 13.8831 5.76313L18.0085 5.12869C18.6864 5.02355 19.3317 4.7589 19.8864 4.34923L23.2541 1.88397ZM31.5267 6.26706C30.7936 5.73034 29.9086 5.44102 29 5.44102C28.0914 5.44102 27.2064 5.73034 26.4733 6.26706L23.1091 8.73232C21.8477 9.66066 20.3798 10.269 18.8314 10.5051L14.7133 11.1359C13.8138 11.2742 12.9819 11.6957 12.3385 12.3393C11.695 12.9828 11.2735 13.8147 11.1352 14.7142L10.5045 18.8363C10.2684 20.3847 9.66006 21.8526 8.73177 23.1142L6.26667 26.4749C5.161 27.9795 5.161 30.0278 6.26667 31.5287L8.73177 34.8931C9.65981 36.1547 10.2652 37.6193 10.5045 39.171L11.1352 43.2894C11.418 45.1384 12.8681 46.5849 14.7133 46.8677L18.8351 47.4985C20.383 47.7378 21.8476 48.3432 23.1128 49.2713L26.4733 51.7366C27.9777 52.8423 30.0259 52.8423 31.5267 51.7366L34.8909 49.2713C36.1523 48.343 37.6202 47.7346 39.1686 47.4985L43.2867 46.8677C45.1356 46.5849 46.582 45.1348 46.8648 43.2894L47.4955 39.1674C47.7348 37.6193 48.3402 36.1547 49.2682 34.8894L51.7333 31.5287C52.839 30.0242 52.839 27.9758 51.7333 26.4749L49.2682 23.1106C48.3399 21.849 47.7316 20.381 47.4955 18.8326L46.8648 14.7142C46.7265 13.8147 46.305 12.9828 45.6615 12.3393C45.0181 11.6957 44.1862 11.2742 43.2867 11.1359L39.1649 10.5051C37.6166 10.269 36.1487 9.66066 34.8872 8.73232L31.5267 6.26706ZM25.0848 22.0592C24.7594 22.6986 24.1981 23.1835 23.5167 23.4081C22.8354 23.6328 22.0928 23.579 21.451 23.2585C20.8091 22.938 20.3199 22.3768 20.09 21.6972C19.86 21.0176 19.908 20.2746 20.2235 19.6302C20.8362 18.4012 21.8041 17.0888 23.3013 16.0882C24.8166 15.0804 26.7125 14.5003 29 14.5003C31.1315 14.486 33.2119 15.1528 34.938 16.4036C36.7578 17.7704 38.0629 19.9021 38.0629 22.6574C38.0629 24.2816 37.646 25.6665 36.8702 26.8266C36.127 27.9396 35.1664 28.6864 34.3616 29.2266C33.9665 29.4876 33.5641 29.7269 33.2269 29.9335L33.2052 29.948C32.8863 30.1337 32.572 30.3271 32.2626 30.5281C31.8744 30.7561 31.5345 31.0578 31.2621 31.4163C30.8585 32.0076 30.2379 32.4159 29.5351 32.5524C28.8324 32.689 28.1041 32.5428 27.5084 32.1457C26.9128 31.7485 26.4977 31.1324 26.3535 30.4312C26.2092 29.7299 26.3474 29 26.7379 28.4C27.4049 27.4429 28.2605 26.6272 29.2465 26.0036C29.6417 25.739 30.044 25.4997 30.3812 25.2967L30.4066 25.2822C30.7691 25.061 31.0663 24.8834 31.3418 24.6985C31.7305 24.4696 32.0714 24.1681 32.346 23.8103C32.4802 23.6145 32.6252 23.2991 32.6252 22.6574C32.6389 22.286 32.5592 21.917 32.3932 21.5845C32.2273 21.2519 31.9804 20.9664 31.6754 20.7541C30.8897 20.2113 29.9548 19.9262 29 19.9384C27.6623 19.9384 26.843 20.2646 26.3174 20.6163C25.7869 20.9806 25.3618 21.4783 25.0848 22.0592ZM32.6252 39.878C32.6252 40.8395 32.2432 41.7616 31.5634 42.4415C30.8835 43.1214 29.9615 43.5033 29 43.5033C28.0386 43.5033 27.1165 43.1214 26.4366 42.4415C25.7568 41.7616 25.3748 40.8395 25.3748 39.878C25.3748 38.9164 25.7568 37.9943 26.4366 37.3144C27.1165 36.6345 28.0386 36.2526 29 36.2526C29.9615 36.2526 30.8835 36.6345 31.5634 37.3144C32.2432 37.9943 32.6252 38.9164 32.6252 39.878Z" fill="#DB5356"/>
</svg>
