<svg width="64" height="59" viewBox="0 0 64 59" fill="none" xmlns="http://www.w3.org/2000/svg">
<path d="M28.9016 31.5173L24.623 27.4106C24.082 26.8823 23.4062 26.6181 22.5957 26.6181C21.7852 26.6181 21.0839 26.9063 20.4918 27.4827C19.9508 28.011 19.6803 28.6835 19.6803 29.5C19.6803 30.3165 19.9508 30.989 20.4918 31.5173L26.8361 37.7134C27.4262 38.2897 28.1148 38.5779 28.9016 38.5779C29.6885 38.5779 30.377 38.2897 30.9672 37.7134L43.5082 25.4654C44.0984 24.889 44.3807 24.2165 44.3551 23.448C44.3295 22.6795 44.0472 22.0071 43.5082 21.4307C42.918 20.8544 42.2177 20.5546 41.4072 20.5316C40.5967 20.5085 39.8954 20.7842 39.3033 21.3587L28.9016 31.5173ZM20.6393 57.5983L16.3607 50.5377L8.2459 48.8086C7.5082 48.6645 6.91803 48.2928 6.47541 47.6933C6.03279 47.0939 5.86066 46.433 5.95902 45.7106L6.77049 37.5693L1.2377 31.3732C0.745902 30.8449 0.5 30.2205 0.5 29.5C0.5 28.7795 0.745902 28.1551 1.2377 27.6268L6.77049 21.4307L5.95902 13.2894C5.86066 12.5689 6.03279 11.908 6.47541 11.3067C6.91803 10.7053 7.5082 10.3336 8.2459 10.1914L16.3607 8.46226L20.6393 1.40165C21.0328 0.777246 21.5738 0.356491 22.2623 0.139389C22.9508 -0.0777125 23.6393 -0.0412087 24.3279 0.248901L32 3.41897L39.6721 0.248901C40.3607 -0.0392875 41.0492 -0.0757913 41.7377 0.139389C42.4262 0.35457 42.9672 0.775324 43.3607 1.40165L47.6393 8.46226L55.7541 10.1914C56.4918 10.3355 57.082 10.7082 57.5246 11.3096C57.9672 11.9109 58.1393 12.5709 58.041 13.2894L57.2295 21.4307L62.7623 27.6268C63.2541 28.1551 63.5 28.7795 63.5 29.5C63.5 30.2205 63.2541 30.8449 62.7623 31.3732L57.2295 37.5693L58.041 45.7106C58.1393 46.4311 57.9672 47.092 57.5246 47.6933C57.082 48.2947 56.4918 48.6664 55.7541 48.8086L47.6393 50.5377L43.3607 57.5983C42.9672 58.2228 42.4262 58.6435 41.7377 58.8606C41.0492 59.0777 40.3607 59.0412 39.6721 58.7511L32 55.581L24.3279 58.7511C23.6393 59.0393 22.9508 59.0758 22.2623 58.8606C21.5738 58.6454 21.0328 58.2247 20.6393 57.5983Z" fill="#39A279"/>
</svg>
